<mxfile host="app.diagrams.net" agent="Mozilla/5.0 (Windows NT 10.0; Win64; x64) AppleWebKit/537.36 (KHTML, like Gecko) Chrome/135.0.0.0 Safari/537.36 Edg/135.0.0.0" version="26.2.14">
  <diagram id="C5RBs43oDa-KdzZeNtuy" name="Page-1">
    <mxGraphModel dx="1668" dy="885" grid="1" gridSize="10" guides="1" tooltips="1" connect="1" arrows="1" fold="1" page="1" pageScale="1" pageWidth="1169" pageHeight="827" math="0" shadow="0">
      <root>
        <mxCell id="WIyWlLk6GJQsqaUBKTNV-0" />
        <mxCell id="WIyWlLk6GJQsqaUBKTNV-1" parent="WIyWlLk6GJQsqaUBKTNV-0" />
        <mxCell id="dBOtiUS-YEzEQUwPZ3wr-102" value="" style="edgeStyle=orthogonalEdgeStyle;rounded=0;orthogonalLoop=1;jettySize=auto;html=1;" parent="WIyWlLk6GJQsqaUBKTNV-1" source="dBOtiUS-YEzEQUwPZ3wr-0" target="dBOtiUS-YEzEQUwPZ3wr-96" edge="1">
          <mxGeometry relative="1" as="geometry" />
        </mxCell>
        <mxCell id="dBOtiUS-YEzEQUwPZ3wr-0" value="Trigger I/O Signal to start Nordson" style="rounded=1;whiteSpace=wrap;html=1;fillColor=#e1d5e7;strokeColor=#9673a6;" parent="WIyWlLk6GJQsqaUBKTNV-1" vertex="1">
          <mxGeometry x="695" y="486" width="200" height="30" as="geometry" />
        </mxCell>
        <mxCell id="Qxf0qIEV4JPl206SXnXj-8" style="edgeStyle=orthogonalEdgeStyle;rounded=0;orthogonalLoop=1;jettySize=auto;html=1;" edge="1" parent="WIyWlLk6GJQsqaUBKTNV-1" source="dBOtiUS-YEzEQUwPZ3wr-22" target="dBOtiUS-YEzEQUwPZ3wr-34">
          <mxGeometry relative="1" as="geometry" />
        </mxCell>
        <mxCell id="dBOtiUS-YEzEQUwPZ3wr-22" value="Scan Barcode" style="rounded=1;whiteSpace=wrap;html=1;fillColor=#fff2cc;strokeColor=#d6b656;" parent="WIyWlLk6GJQsqaUBKTNV-1" vertex="1">
          <mxGeometry x="539" y="286" width="100" height="30" as="geometry" />
        </mxCell>
        <mxCell id="dBOtiUS-YEzEQUwPZ3wr-54" value="" style="edgeStyle=orthogonalEdgeStyle;rounded=0;orthogonalLoop=1;jettySize=auto;html=1;" parent="WIyWlLk6GJQsqaUBKTNV-1" source="dBOtiUS-YEzEQUwPZ3wr-34" target="dBOtiUS-YEzEQUwPZ3wr-89" edge="1">
          <mxGeometry relative="1" as="geometry" />
        </mxCell>
        <mxCell id="dBOtiUS-YEzEQUwPZ3wr-58" value="TRUE" style="edgeLabel;html=1;align=center;verticalAlign=middle;resizable=0;points=[];" parent="dBOtiUS-YEzEQUwPZ3wr-54" vertex="1" connectable="0">
          <mxGeometry x="-0.3083" y="-3" relative="1" as="geometry">
            <mxPoint x="3" y="6" as="offset" />
          </mxGeometry>
        </mxCell>
        <mxCell id="dBOtiUS-YEzEQUwPZ3wr-34" value="Hand Chack Serial" style="rounded=1;whiteSpace=wrap;html=1;fillColor=#dae8fc;strokeColor=#6c8ebf;" parent="WIyWlLk6GJQsqaUBKTNV-1" vertex="1">
          <mxGeometry x="539" y="346" width="100" height="40" as="geometry" />
        </mxCell>
        <mxCell id="dBOtiUS-YEzEQUwPZ3wr-46" value="" style="edgeStyle=orthogonalEdgeStyle;rounded=0;orthogonalLoop=1;jettySize=auto;html=1;" parent="WIyWlLk6GJQsqaUBKTNV-1" source="dBOtiUS-YEzEQUwPZ3wr-43" target="dBOtiUS-YEzEQUwPZ3wr-45" edge="1">
          <mxGeometry relative="1" as="geometry" />
        </mxCell>
        <mxCell id="dBOtiUS-YEzEQUwPZ3wr-43" value="Wait 1 sec" style="rounded=1;whiteSpace=wrap;html=1;fillColor=#e1d5e7;strokeColor=#9673a6;" parent="WIyWlLk6GJQsqaUBKTNV-1" vertex="1">
          <mxGeometry x="760" y="606" width="70" height="30" as="geometry" />
        </mxCell>
        <mxCell id="dBOtiUS-YEzEQUwPZ3wr-52" value="" style="edgeStyle=orthogonalEdgeStyle;rounded=0;orthogonalLoop=1;jettySize=auto;html=1;" parent="WIyWlLk6GJQsqaUBKTNV-1" source="dBOtiUS-YEzEQUwPZ3wr-45" target="dBOtiUS-YEzEQUwPZ3wr-51" edge="1">
          <mxGeometry relative="1" as="geometry" />
        </mxCell>
        <mxCell id="Qxf0qIEV4JPl206SXnXj-12" value="TRUE" style="edgeLabel;html=1;align=center;verticalAlign=middle;resizable=0;points=[];" vertex="1" connectable="0" parent="dBOtiUS-YEzEQUwPZ3wr-52">
          <mxGeometry x="-0.6156" relative="1" as="geometry">
            <mxPoint as="offset" />
          </mxGeometry>
        </mxCell>
        <mxCell id="dBOtiUS-YEzEQUwPZ3wr-104" style="edgeStyle=orthogonalEdgeStyle;rounded=0;orthogonalLoop=1;jettySize=auto;html=1;entryX=0;entryY=0.5;entryDx=0;entryDy=0;" parent="WIyWlLk6GJQsqaUBKTNV-1" source="dBOtiUS-YEzEQUwPZ3wr-45" target="dBOtiUS-YEzEQUwPZ3wr-96" edge="1">
          <mxGeometry relative="1" as="geometry">
            <Array as="points">
              <mxPoint x="589" y="561" />
            </Array>
          </mxGeometry>
        </mxCell>
        <mxCell id="Qxf0qIEV4JPl206SXnXj-11" value="FALSE" style="edgeLabel;html=1;align=center;verticalAlign=middle;resizable=0;points=[];" vertex="1" connectable="0" parent="dBOtiUS-YEzEQUwPZ3wr-104">
          <mxGeometry x="0.2651" y="1" relative="1" as="geometry">
            <mxPoint as="offset" />
          </mxGeometry>
        </mxCell>
        <mxCell id="dBOtiUS-YEzEQUwPZ3wr-45" value="Read I/O signal to check process Finished?&amp;nbsp;" style="rounded=1;whiteSpace=wrap;html=1;fillColor=#e1d5e7;strokeColor=#9673a6;" parent="WIyWlLk6GJQsqaUBKTNV-1" vertex="1">
          <mxGeometry x="469" y="606" width="240" height="30" as="geometry" />
        </mxCell>
        <mxCell id="dBOtiUS-YEzEQUwPZ3wr-72" value="" style="edgeStyle=orthogonalEdgeStyle;rounded=0;orthogonalLoop=1;jettySize=auto;html=1;" parent="WIyWlLk6GJQsqaUBKTNV-1" source="dBOtiUS-YEzEQUwPZ3wr-51" target="dBOtiUS-YEzEQUwPZ3wr-71" edge="1">
          <mxGeometry relative="1" as="geometry" />
        </mxCell>
        <mxCell id="dBOtiUS-YEzEQUwPZ3wr-51" value="Display + Save result to FITs" style="rounded=1;whiteSpace=wrap;html=1;fillColor=#e1d5e7;strokeColor=#9673a6;" parent="WIyWlLk6GJQsqaUBKTNV-1" vertex="1">
          <mxGeometry x="504" y="666" width="170" height="30" as="geometry" />
        </mxCell>
        <mxCell id="dBOtiUS-YEzEQUwPZ3wr-101" value="" style="edgeStyle=orthogonalEdgeStyle;rounded=0;orthogonalLoop=1;jettySize=auto;html=1;" parent="WIyWlLk6GJQsqaUBKTNV-1" source="dBOtiUS-YEzEQUwPZ3wr-53" target="dBOtiUS-YEzEQUwPZ3wr-0" edge="1">
          <mxGeometry relative="1" as="geometry" />
        </mxCell>
        <mxCell id="dBOtiUS-YEzEQUwPZ3wr-53" value="Insert EPOXY Lot" style="rounded=1;whiteSpace=wrap;html=1;fillColor=#fff2cc;strokeColor=#d6b656;" parent="WIyWlLk6GJQsqaUBKTNV-1" vertex="1">
          <mxGeometry x="539" y="486" width="100" height="30" as="geometry" />
        </mxCell>
        <mxCell id="dBOtiUS-YEzEQUwPZ3wr-68" value="" style="group" parent="WIyWlLk6GJQsqaUBKTNV-1" vertex="1" connectable="0">
          <mxGeometry x="715" y="116" width="180" height="230" as="geometry" />
        </mxCell>
        <mxCell id="dBOtiUS-YEzEQUwPZ3wr-63" value="" style="rounded=0;whiteSpace=wrap;html=1;" parent="dBOtiUS-YEzEQUwPZ3wr-68" vertex="1">
          <mxGeometry width="180" height="230" as="geometry" />
        </mxCell>
        <mxCell id="dBOtiUS-YEzEQUwPZ3wr-64" value="&lt;b&gt;&lt;font style=&quot;font-size: 15px;&quot;&gt;Legend&lt;/font&gt;&lt;/b&gt;" style="text;html=1;align=center;verticalAlign=middle;whiteSpace=wrap;rounded=0;" parent="dBOtiUS-YEzEQUwPZ3wr-68" vertex="1">
          <mxGeometry x="60" y="10" width="60" height="30" as="geometry" />
        </mxCell>
        <mxCell id="dBOtiUS-YEzEQUwPZ3wr-65" value="Operator Manual Work" style="rounded=1;whiteSpace=wrap;html=1;fillColor=#fff2cc;strokeColor=#d6b656;" parent="dBOtiUS-YEzEQUwPZ3wr-68" vertex="1">
          <mxGeometry x="20" y="50" width="140" height="30" as="geometry" />
        </mxCell>
        <mxCell id="dBOtiUS-YEzEQUwPZ3wr-66" value="Software Work" style="rounded=1;whiteSpace=wrap;html=1;fillColor=#e1d5e7;strokeColor=#9673a6;" parent="dBOtiUS-YEzEQUwPZ3wr-68" vertex="1">
          <mxGeometry x="20" y="90" width="140" height="30" as="geometry" />
        </mxCell>
        <mxCell id="dBOtiUS-YEzEQUwPZ3wr-67" value="FITs API" style="rounded=1;whiteSpace=wrap;html=1;fillColor=#dae8fc;strokeColor=#6c8ebf;" parent="dBOtiUS-YEzEQUwPZ3wr-68" vertex="1">
          <mxGeometry x="20" y="130" width="140" height="30" as="geometry" />
        </mxCell>
        <mxCell id="dBOtiUS-YEzEQUwPZ3wr-81" value="Start / End" style="rounded=1;whiteSpace=wrap;html=1;fillColor=#ffe6cc;strokeColor=#d79b00;" parent="dBOtiUS-YEzEQUwPZ3wr-68" vertex="1">
          <mxGeometry x="20" y="170" width="140" height="30" as="geometry" />
        </mxCell>
        <mxCell id="dBOtiUS-YEzEQUwPZ3wr-79" style="edgeStyle=orthogonalEdgeStyle;rounded=0;orthogonalLoop=1;jettySize=auto;html=1;entryX=0;entryY=0.5;entryDx=0;entryDy=0;" parent="WIyWlLk6GJQsqaUBKTNV-1" source="dBOtiUS-YEzEQUwPZ3wr-71" target="dBOtiUS-YEzEQUwPZ3wr-78" edge="1">
          <mxGeometry relative="1" as="geometry">
            <Array as="points">
              <mxPoint x="275" y="681" />
              <mxPoint x="275" y="246" />
            </Array>
          </mxGeometry>
        </mxCell>
        <mxCell id="dBOtiUS-YEzEQUwPZ3wr-71" value="Process Ended" style="rounded=1;whiteSpace=wrap;html=1;fillColor=#ffe6cc;strokeColor=#d79b00;" parent="WIyWlLk6GJQsqaUBKTNV-1" vertex="1">
          <mxGeometry x="315" y="651" width="120" height="60" as="geometry" />
        </mxCell>
        <mxCell id="Qxf0qIEV4JPl206SXnXj-7" style="edgeStyle=orthogonalEdgeStyle;rounded=0;orthogonalLoop=1;jettySize=auto;html=1;" edge="1" parent="WIyWlLk6GJQsqaUBKTNV-1" source="dBOtiUS-YEzEQUwPZ3wr-74" target="dBOtiUS-YEzEQUwPZ3wr-22">
          <mxGeometry relative="1" as="geometry" />
        </mxCell>
        <mxCell id="dBOtiUS-YEzEQUwPZ3wr-74" value="Take new part" style="rounded=1;whiteSpace=wrap;html=1;fillColor=#fff2cc;strokeColor=#d6b656;" parent="WIyWlLk6GJQsqaUBKTNV-1" vertex="1">
          <mxGeometry x="539" y="231" width="100" height="30" as="geometry" />
        </mxCell>
        <mxCell id="Qxf0qIEV4JPl206SXnXj-5" style="edgeStyle=orthogonalEdgeStyle;rounded=0;orthogonalLoop=1;jettySize=auto;html=1;" edge="1" parent="WIyWlLk6GJQsqaUBKTNV-1" source="dBOtiUS-YEzEQUwPZ3wr-78" target="dBOtiUS-YEzEQUwPZ3wr-74">
          <mxGeometry relative="1" as="geometry" />
        </mxCell>
        <mxCell id="dBOtiUS-YEzEQUwPZ3wr-78" value="New process" style="rounded=1;whiteSpace=wrap;html=1;fillColor=#ffe6cc;strokeColor=#d79b00;" parent="WIyWlLk6GJQsqaUBKTNV-1" vertex="1">
          <mxGeometry x="315" y="216" width="120" height="60" as="geometry" />
        </mxCell>
        <mxCell id="dBOtiUS-YEzEQUwPZ3wr-84" value="" style="edgeStyle=orthogonalEdgeStyle;rounded=0;orthogonalLoop=1;jettySize=auto;html=1;" parent="WIyWlLk6GJQsqaUBKTNV-1" source="dBOtiUS-YEzEQUwPZ3wr-83" target="dBOtiUS-YEzEQUwPZ3wr-74" edge="1">
          <mxGeometry relative="1" as="geometry" />
        </mxCell>
        <mxCell id="dBOtiUS-YEzEQUwPZ3wr-83" value="Initial Software&amp;nbsp;" style="rounded=1;whiteSpace=wrap;html=1;fillColor=#e1d5e7;strokeColor=#9673a6;" parent="WIyWlLk6GJQsqaUBKTNV-1" vertex="1">
          <mxGeometry x="529" y="176" width="120" height="30" as="geometry" />
        </mxCell>
        <mxCell id="dBOtiUS-YEzEQUwPZ3wr-92" style="edgeStyle=orthogonalEdgeStyle;rounded=0;orthogonalLoop=1;jettySize=auto;html=1;entryX=0.5;entryY=0;entryDx=0;entryDy=0;" parent="WIyWlLk6GJQsqaUBKTNV-1" source="dBOtiUS-YEzEQUwPZ3wr-89" target="dBOtiUS-YEzEQUwPZ3wr-53" edge="1">
          <mxGeometry relative="1" as="geometry" />
        </mxCell>
        <mxCell id="dBOtiUS-YEzEQUwPZ3wr-95" value="FALSE" style="edgeLabel;html=1;align=center;verticalAlign=middle;resizable=0;points=[];" parent="dBOtiUS-YEzEQUwPZ3wr-92" vertex="1" connectable="0">
          <mxGeometry x="0.2814" relative="1" as="geometry">
            <mxPoint as="offset" />
          </mxGeometry>
        </mxCell>
        <mxCell id="dBOtiUS-YEzEQUwPZ3wr-97" style="edgeStyle=orthogonalEdgeStyle;rounded=0;orthogonalLoop=1;jettySize=auto;html=1;" parent="WIyWlLk6GJQsqaUBKTNV-1" source="dBOtiUS-YEzEQUwPZ3wr-89" target="dBOtiUS-YEzEQUwPZ3wr-71" edge="1">
          <mxGeometry relative="1" as="geometry" />
        </mxCell>
        <mxCell id="dBOtiUS-YEzEQUwPZ3wr-98" value="TRUE" style="edgeLabel;html=1;align=center;verticalAlign=middle;resizable=0;points=[];" parent="dBOtiUS-YEzEQUwPZ3wr-97" vertex="1" connectable="0">
          <mxGeometry x="-0.7938" y="1" relative="1" as="geometry">
            <mxPoint x="-14" y="-1" as="offset" />
          </mxGeometry>
        </mxCell>
        <mxCell id="dBOtiUS-YEzEQUwPZ3wr-89" value="Check Emergency is press?" style="rounded=1;whiteSpace=wrap;html=1;fillColor=#e1d5e7;strokeColor=#9673a6;" parent="WIyWlLk6GJQsqaUBKTNV-1" vertex="1">
          <mxGeometry x="504" y="426" width="170" height="30" as="geometry" />
        </mxCell>
        <mxCell id="dBOtiUS-YEzEQUwPZ3wr-103" value="" style="edgeStyle=orthogonalEdgeStyle;rounded=0;orthogonalLoop=1;jettySize=auto;html=1;" parent="WIyWlLk6GJQsqaUBKTNV-1" source="dBOtiUS-YEzEQUwPZ3wr-96" target="dBOtiUS-YEzEQUwPZ3wr-43" edge="1">
          <mxGeometry relative="1" as="geometry" />
        </mxCell>
        <mxCell id="dBOtiUS-YEzEQUwPZ3wr-96" value="Check Emergency is press?" style="rounded=1;whiteSpace=wrap;html=1;fillColor=#e1d5e7;strokeColor=#9673a6;" parent="WIyWlLk6GJQsqaUBKTNV-1" vertex="1">
          <mxGeometry x="710" y="546" width="170" height="30" as="geometry" />
        </mxCell>
        <mxCell id="Qxf0qIEV4JPl206SXnXj-10" style="edgeStyle=orthogonalEdgeStyle;rounded=0;orthogonalLoop=1;jettySize=auto;html=1;" edge="1" parent="WIyWlLk6GJQsqaUBKTNV-1" source="Qxf0qIEV4JPl206SXnXj-9" target="dBOtiUS-YEzEQUwPZ3wr-83">
          <mxGeometry relative="1" as="geometry" />
        </mxCell>
        <mxCell id="Qxf0qIEV4JPl206SXnXj-9" value="Login" style="rounded=1;whiteSpace=wrap;html=1;fillColor=#fff2cc;strokeColor=#d6b656;" vertex="1" parent="WIyWlLk6GJQsqaUBKTNV-1">
          <mxGeometry x="539" y="116" width="100" height="30" as="geometry" />
        </mxCell>
      </root>
    </mxGraphModel>
  </diagram>
</mxfile>
